<svg width="600" height="400" viewBox="0 0 600 400" xmlns="http://www.w3.org/2000/svg">
  <!-- Min-Heap -->
  <text x="100" y="30" font-family="Arial" font-size="16" fill="black">Min-Heap</text>
  <circle cx="150" cy="70" r="20" stroke="black" stroke-width="2" fill="white"/>
  <text x="144" y="75" font-family="Arial" font-size="12" fill="black">1</text>
  <line x1="150" y1="90" x2="100" y2="130" stroke="black" stroke-width="2"/>
  <line x1="150" y1="90" x2="200" y2="130" stroke="black" stroke-width="2"/>
  <circle cx="100" cy="150" r="20" stroke="black" stroke-width="2" fill="white"/>
  <text x="94" y="155" font-family="Arial" font-size="12" fill="black">3</text>
  <circle cx="200" cy="150" r="20" stroke="black" stroke-width="2" fill="white"/>
  <text x="194" y="155" font-family="Arial" font-size="12" fill="black">5</text>
  <line x1="100" y1="170" x2="70" y2="210" stroke="black" stroke-width="2"/>
  <line x1="100" y1="170" x2="130" y2="210" stroke="black" stroke-width="2"/>
  <circle cx="70" cy="230" r="20" stroke="black" stroke-width="2" fill="white"/>
  <text x="64" y="235" font-family="Arial" font-size="12" fill="black">7</text>
  <circle cx="130" cy="230" r="20" stroke="black" stroke-width="2" fill="white"/>
  <text x="124" y="235" font-family="Arial" font-size="12" fill="black">8</text>

  <!-- Max-Heap -->
  <text x="400" y="30" font-family="Arial" font-size="16" fill="black">Max-Heap</text>
  <circle cx="450" cy="70" r="20" stroke="black" stroke-width="2" fill="white"/>
  <text x="444" y="75" font-family="Arial" font-size="12" fill="black">9</text>
  <line x1="450" y1="90" x2="400" y2="130" stroke="black" stroke-width="2"/>
  <line x1="450" y1="90" x2="500" y2="130" stroke="black" stroke-width="2"/>
  <circle cx="400" cy="150" r="20" stroke="black" stroke-width="2" fill="white"/>
  <text x="394" y="155" font-family="Arial" font-size="12" fill="black">6</text>
  <circle cx="500" cy="150" r="20" stroke="black" stroke-width="2" fill="white"/>
  <text x="494" y="155" font-family="Arial" font-size="12" fill="black">4</text>
  <line x1="400" y1="170" x2="370" y2="210" stroke="black" stroke-width="2"/>
  <line x1="400" y1="170" x2="430" y2="210" stroke="black" stroke-width="2"/>
  <circle cx="370" cy="230" r="20" stroke="black" stroke-width="2" fill="white"/>
  <text x="364" y="235" font-family="Arial" font-size="12" fill="black">2</text>
  <circle cx="430" cy="230" r="20" stroke="black" stroke-width="2" fill="white"/>
  <text x="424" y="235" font-family="Arial" font-size="12" fill="black">1</text>
</svg>