<svg width="600" height="400" viewBox="0 0 600 400" xmlns="http://www.w3.org/2000/svg">
  <rect width="100%" height="100%" fill="white"/>
  <line x1="100" y1="200" x2="150" y2="200" stroke="black" stroke-width="2"/>
  <line x1="150" y1="200" x2="150" y2="150" stroke="black" stroke-width="2"/>
  <line x1="150" y1="150" x2="200" y2="150" stroke="black" stroke-width="2"/>
  <line x1="200" y1="150" x2="200" y2="200" stroke="black" stroke-width="2"/>
  <line x1="200" y1="200" x2="250" y2="200" stroke="black" stroke-width="2"/>
  <line x1="250" y1="200" x2="250" y2="250" stroke="black" stroke-width="2"/>
  <line x1="250" y1="250" x2="300" y2="250" stroke="black" stroke-width="2"/>
  <line x1="300" y1="250" x2="300" y2="200" stroke="black" stroke-width="2"/>
  <line x1="300" y1="200" x2="350" y2="200" stroke="black" stroke-width="2"/>
  <line x1="350" y1="200" x2="350" y2="150" stroke="black" stroke-width="2"/>
  <line x1="350" y1="150" x2="400" y2="150" stroke="black" stroke-width="2"/>
  <line x1="400" y1="150" x2="400" y2="200" stroke="black" stroke-width="2"/>
  <line x1="400" y1="200" x2="450" y2="200" stroke="black" stroke-width="2"/>
  <line x1="450" y1="200" x2="450" y2="250" stroke="black" stroke-width="2"/>
  <line x1="450" y1="250" x2="500" y2="250" stroke="black" stroke-width="2"/>
  <line x1="500" y1="250" x2="500" y2="200" stroke="black" stroke-width="2"/>
  <line x1="500" y1="200" x2="550" y2="200" stroke="black" stroke-width="2"/>
  <line x1="550" y1="200" x2="550" y2="150" stroke="black" stroke-width="2"/>
  <line x1="550" y1="150" x2="100" y2="150" stroke="black" stroke-width="2"/>
  <line x1="150" y1="150" x2="150" y2="100" stroke="black" stroke-width="2"/>
  <line x1="150" y1="100" x2="200" y2="100" stroke="black" stroke-width="2"/>
  <line x1="200" y1="100" x2="200" y2="150" stroke="black" stroke-width="2"/>
  <line x1="350" y1="150" x2="350" y2="100" stroke="black" stroke-width="2"/>
  <line x1="350" y1="100" x2="400" y2="100" stroke="black" stroke-width="2"/>
  <line x1="400" y1="100" x2="400" y2="150" stroke="black" stroke-width="2"/>
  <polygon points="250,200 270,220 250,240" fill="none" stroke="black" stroke-width="2"/>
  <polygon points="450,200 470,220 450,240" fill="none" stroke="black" stroke-width="2"/>
  <text x="125" y="190" font-family="Arial" font-size="14" fill="black">L</text>
  <text x="225" y="190" font-family="Arial" font-size="14" fill="black">S</text>
  <text x="325" y="190" font-family="Arial" font-size="14" fill="black">D</text>
  <text x="425" y="190" font-family="Arial" font-size="14" fill="black">C</text>
  <text x="525" y="190" font-family="Arial" font-size="14" fill="black">R</text>
</svg>