<svg width="600" height="400" viewBox="0 0 600 400" xmlns="http://www.w3.org/2000/svg">
  <rect width="600" height="400" fill="white"/>
  <!-- DC Source -->
  <line x1="100" y1="50" x2="100" y2="150" stroke="black" stroke-width="2"/>
  <line x1="100" y1="50" x2="150" y2="50" stroke="black" stroke-width="2"/>
  <line x1="100" y1="150" x2="150" y2="150" stroke="black" stroke-width="2"/>
  <line x1="150" y1="50" x2="150" y2="150" stroke="black" stroke-width="2"/>
  <text x="80" y="100" fill="black" font-size="14" font-family="Arial">DC</text>
  <text x="80" y="120" fill="black" font-size="14" font-family="Arial">Source</text>
  
  <!-- Switches -->
  <line x1="150" y1="50" x2="250" y2="50" stroke="black" stroke-width="2"/>
  <line x1="150" y1="150" x2="250" y2="150" stroke="black" stroke-width="2"/>
  
  <line x1="250" y1="50" x2="250" y2="150" stroke="black" stroke-width="2"/>
  <line x1="250" y1="50" x2="300" y2="100" stroke="black" stroke-width="2"/>
  <line x1="250" y1="150" x2="300" y2="100" stroke="black" stroke-width="2"/>
  
  <line x1="250" y1="50" x2="300" y2="50" stroke="black" stroke-width="2"/>
  <line x1="250" y1="150" x2="300" y2="150" stroke="black" stroke-width="2"/>
  
  <text x="230" y="40" fill="black" font-size="14" font-family="Arial">S1</text>
  <text x="230" y="170" fill="black" font-size="14" font-family="Arial">S2</text>
  
  <!-- Load -->
  <line x1="300" y1="100" x2="400" y2="100" stroke="black" stroke-width="2"/>
  <line x1="400" y1="50" x2="400" y2="150" stroke="black" stroke-width="2"/>
  
  <line x1="400" y1="50" x2="450" y2="50" stroke="black" stroke-width="2"/>
  <line x1="400" y1="150" x2="450" y2="150" stroke="black" stroke-width="2"/>
  
  <line x1="450" y1="50" x2="450" y2="150" stroke="black" stroke-width="2"/>
  <line x1="450" y1="50" x2="500" y2="100" stroke="black" stroke-width="2"/>
  <line x1="450" y1="150" x2="500" y2="100" stroke="black" stroke-width="2"/>
  
  <text x="480" y="100" fill="black" font-size="14" font-family="Arial">Load</text>
  
  <!-- AC Output -->
  <line x1="500" y1="100" x2="550" y2="100" stroke="black" stroke-width="2"/>
  <text x="560" y="105" fill="black" font-size="14" font-family="Arial">AC Output</text>
</svg>