<svg width="600" height="400" viewBox="0 0 600 400" xmlns="http://www.w3.org/2000/svg">
  <!-- Draw the Warren truss structure -->
  <!-- Bottom chord -->
  <line x1="50" y1="300" x2="550" y2="300" stroke="black" stroke-width="2"/>
  <!-- Top chord -->
  <line x1="150" y1="150" x2="450" y2="150" stroke="black" stroke-width="2"/>
  <!-- Diagonals -->
  <line x1="50" y1="300" x2="150" y2="150" stroke="black" stroke-width="2"/>
  <line x1="150" y1="150" x2="250" y2="300" stroke="black" stroke-width="2"/>
  <line x1="250" y1="300" x2="350" y2="150" stroke="black" stroke-width="2"/>
  <line x1="350" y1="150" x2="450" y2="300" stroke="black" stroke-width="2"/>
  <line x1="450" y1="300" x2="550" y2="150" stroke="black" stroke-width="2"/>
  <!-- Vertical members -->
  <line x1="150" y1="150" x2="150" y2="300" stroke="black" stroke-width="2"/>
  <line x1="250" y1="300" x2="250" y2="150" stroke="black" stroke-width="2"/>
  <line x1="350" y1="150" x2="350" y2="300" stroke="black" stroke-width="2"/>
  <line x1="450" y1="300" x2="450" y2="150" stroke="black" stroke-width="2"/>
  <!-- Joints -->
  <circle cx="50" cy="300" r="5" fill="black"/>
  <circle cx="150" cy="150" r="5" fill="black"/>
  <circle cx="250" cy="300" r="5" fill="black"/>
  <circle cx="350" cy="150" r="5" fill="black"/>
  <circle cx="450" cy="300" r="5" fill="black"/>
  <circle cx="550" cy="150" r="5" fill="black"/>
  <!-- Labels -->
  <text x="40" y="320" font-family="Arial" font-size="12" fill="black">A</text>
  <text x="140" y="140" font-family="Arial" font-size="12" fill="black">B</text>
  <text x="240" y="320" font-family="Arial" font-size="12" fill="black">C</text>
  <text x="340" y="140" font-family="Arial" font-size="12" fill="black">D</text>
  <text x="440" y="320" font-family="Arial" font-size="12" fill="black">E</text>
  <text x="540" y="140" font-family="Arial" font-size="12" fill="black">F</text>
</svg>