<svg width="600" height="400" viewBox="0 0 600 400" xmlns="http://www.w3.org/2000/svg">
  <rect x="50" y="100" width="500" height="200" fill="none" stroke="black" stroke-width="2"/>
  <line x1="100" y1="100" x2="100" y2="300" stroke="black" stroke-width="2"/>
  <line x1="150" y1="100" x2="150" y2="300" stroke="black" stroke-width="2"/>
  <line x1="200" y1="100" x2="200" y2="300" stroke="black" stroke-width="2"/>
  <line x1="250" y1="100" x2="250" y2="300" stroke="black" stroke-width="2"/>
  <line x1="300" y1="100" x2="300" y2="300" stroke="black" stroke-width="2"/>
  <line x1="350" y1="100" x2="350" y2="300" stroke="black" stroke-width="2"/>
  <line x1="400" y1="100" x2="400" y2="300" stroke="black" stroke-width="2"/>
  <line x1="450" y1="100" x2="450" y2="300" stroke="black" stroke-width="2"/>
  <line x1="500" y1="100" x2="500" y2="300" stroke="black" stroke-width="2"/>
  <line x1="50" y1="150" x2="550" y2="150" stroke="black" stroke-width="2"/>
  <line x1="50" y1="250" x2="550" y2="250" stroke="black" stroke-width="2"/>
  <text x="20" y="130" font-family="Arial" font-size="14" fill="black">Shell</text>
  <text x="20" y="180" font-family="Arial" font-size="14" fill="black">Tube</text>
  <text x="20" y="280" font-family="Arial" font-size="14" fill="black">Baffles</text>
  <text x="560" y="130" font-family="Arial" font-size="14" fill="black" text-anchor="end">Shell</text>
  <text x="560" y="180" font-family="Arial" font-size="14" fill="black" text-anchor="end">Tube</text>
  <text x="560" y="280" font-family="Arial" font-size="14" fill="black" text-anchor="end">Baffles</text>
</svg>